<?xml version="1.0" standalone="no"?>
<!DOCTYPE svg PUBLIC "-//W3C//DTD SVG 20010904//EN"
 "http://www.w3.org/TR/2001/REC-SVG-20010904/DTD/svg10.dtd">
<svg version="1.0" xmlns="http://www.w3.org/2000/svg"
 width="900.000000pt" height="900.000000pt" viewBox="0 0 900.000000 900.000000"
 preserveAspectRatio="xMidYMid meet">
<g transform="translate(0.000000,900.000000) scale(0.100000,-0.100000)"
fill="#000000" stroke="none">
<path d="M0 4500 l0 -4500 4500 0 4500 0 0 4500 0 4500 -4500 0 -4500 0 0
-4500z m8778 4278 c17 -17 17 -8559 0 -8576 -17 -17 -8559 -17 -8576 0 -17 17
-17 8559 0 8576 17 17 8559 17 8576 0z"/>
<path fill="#2e2e2e" d="M1276 7551 c-4 -5 1 -38 10 -73 8 -35 19 -79 23 -98 4 -19 13 -51 19
-70 6 -19 18 -60 26 -90 8 -30 22 -84 31 -120 10 -36 24 -90 32 -120 8 -30 19
-68 25 -85 5 -16 14 -50 19 -74 5 -25 13 -59 18 -75 5 -17 16 -56 25 -86 14
-53 23 -84 61 -230 35 -129 47 -176 61 -225 15 -56 29 -107 74 -280 18 -66 37
-133 42 -150 10 -31 32 -117 48 -193 5 -24 12 -48 15 -53 4 -5 17 -52 30 -103
12 -52 26 -99 30 -105 4 -7 68 -11 185 -11 167 0 180 1 190 19 9 18 19 50 56
186 7 28 22 82 34 120 11 39 24 88 29 110 5 22 14 54 19 70 13 35 49 159 67
230 8 28 23 82 35 120 12 39 25 86 30 105 11 42 34 126 54 195 8 28 21 75 30
105 8 30 25 87 36 125 11 39 23 84 26 100 3 17 10 39 14 50 5 11 13 35 17 53
4 17 12 33 18 35 11 2 35 -42 45 -87 4 -17 18 -67 30 -111 12 -44 26 -93 30
-110 5 -16 13 -43 19 -60 5 -16 17 -59 27 -95 9 -36 22 -85 30 -110 7 -25 21
-72 30 -105 9 -33 22 -80 30 -105 7 -25 20 -70 29 -100 8 -30 27 -95 41 -145
14 -49 30 -106 34 -125 5 -19 18 -69 30 -110 45 -156 51 -176 66 -230 8 -30
18 -66 21 -80 11 -49 14 -50 204 -50 l179 0 11 28 c6 15 23 77 39 139 16 62
33 127 39 145 5 18 24 87 41 153 46 178 59 226 72 265 6 19 15 51 19 70 12 54
29 118 96 360 8 30 19 71 24 90 4 19 15 60 23 90 24 90 72 268 100 375 25 96
35 133 70 254 9 29 16 63 16 75 0 12 4 26 9 31 11 12 32 99 34 140 l2 30 -191
3 c-145 2 -194 -1 -201 -10 -11 -14 -32 -94 -58 -218 -9 -41 -22 -100 -30
-130 -7 -30 -21 -91 -30 -135 -10 -44 -23 -102 -30 -130 -7 -27 -20 -86 -30
-130 -9 -44 -23 -102 -31 -129 -8 -26 -14 -55 -14 -63 0 -7 -14 -71 -30 -141
-17 -70 -37 -158 -46 -197 -8 -38 -20 -88 -26 -110 -6 -22 -17 -69 -24 -105
-26 -133 -35 -165 -48 -178 -17 -17 -36 -8 -36 16 0 16 -29 137 -66 272 -8 30
-19 71 -23 90 -5 19 -19 71 -31 115 -12 44 -25 96 -29 115 -8 35 -15 61 -45
155 -9 28 -16 58 -16 69 0 10 -7 39 -15 65 -8 25 -21 71 -29 101 -13 51 -24
91 -63 240 -7 30 -20 78 -28 105 -16 55 -63 231 -75 284 -5 19 -15 38 -22 42
-7 5 -83 9 -169 9 -177 0 -179 -1 -197 -80 -28 -117 -33 -138 -46 -185 -15
-50 -29 -102 -60 -225 -23 -86 -45 -167 -58 -210 -6 -19 -15 -51 -19 -70 -4
-19 -17 -71 -29 -115 -12 -44 -26 -96 -31 -115 -4 -19 -15 -60 -23 -90 -8 -30
-28 -107 -44 -171 -16 -65 -32 -122 -36 -127 -3 -6 -11 -30 -16 -54 -37 -168
-62 -248 -76 -248 -14 0 -16 7 -34 90 -6 30 -18 80 -25 110 -8 30 -21 87 -30
125 -9 39 -22 97 -30 130 -8 33 -17 76 -20 95 -4 19 -11 49 -15 65 -5 17 -23
93 -40 170 -18 77 -41 178 -51 225 -11 47 -25 108 -31 135 -6 28 -16 73 -24
100 -7 28 -20 86 -29 130 -9 44 -22 103 -30 130 -7 28 -18 74 -24 104 -6 30
-16 60 -22 68 -9 10 -56 13 -200 13 -103 0 -190 -4 -193 -9z"/>
<path fill="#2e2e2e" d="M4483 7554 c-18 -8 -19 -2214 -1 -2232 8 -8 64 -12 188 -12 124 0
180 4 188 12 9 9 12 105 12 369 0 316 2 358 16 363 9 3 122 6 252 6 317 0 421
16 562 84 136 65 252 178 316 308 67 134 95 302 75 454 -17 129 -62 271 -92
290 -5 3 -9 12 -9 21 0 25 -102 139 -170 190 -88 65 -111 77 -221 114 l-94 32
-505 3 c-278 2 -511 1 -517 -2z m907 -333 c148 -41 241 -125 285 -255 22 -66
22 -256 0 -311 -51 -124 -95 -177 -187 -223 -94 -47 -139 -53 -384 -50 l-229
3 -3 414 c-2 319 1 417 10 429 11 13 45 14 243 9 126 -3 246 -10 265 -16z"/>
<path d="M1114 4617 c-3 -8 -4 -52 -2 -98 l3 -84 2755 0 2755 0 3 75 c2 41 0
85 -3 97 l-5 23 -2751 0 c-2282 0 -2750 -2 -2755 -13z"/>
<path fill="#2e2e2e" d="M1313 3393 c3 -21 19 -90 37 -153 65 -241 72 -266 80 -308 5 -23 13
-50 18 -60 5 -9 12 -35 16 -57 4 -22 11 -53 16 -70 5 -16 17 -56 26 -87 l17
-58 56 -2 c103 -2 107 0 121 53 18 68 39 145 55 199 9 30 29 106 45 169 17 63
32 116 35 119 11 11 35 -10 41 -35 9 -45 34 -135 45 -168 6 -16 15 -48 20 -70
5 -22 18 -71 29 -110 12 -38 25 -85 30 -104 13 -53 17 -54 113 -52 57 1 58 2
73 37 8 19 19 54 24 77 5 23 15 67 23 97 8 30 27 100 41 155 14 55 33 123 41
150 8 28 21 77 30 110 9 33 22 83 30 111 27 93 27 94 -65 94 -94 0 -88 7 -115
-130 -10 -47 -21 -99 -27 -116 -5 -18 -13 -54 -18 -80 -31 -167 -40 -206 -55
-234 -9 -18 -20 -29 -23 -25 -4 4 -12 32 -19 63 -18 85 -27 124 -67 272 -21
74 -41 155 -46 179 -14 63 -24 71 -91 71 -48 0 -60 -4 -73 -22 -9 -12 -16 -31
-16 -41 0 -11 -7 -40 -15 -66 -8 -25 -21 -75 -30 -111 -9 -36 -23 -87 -30
-115 -20 -73 -37 -145 -44 -184 -3 -19 -11 -36 -17 -38 -13 -4 -44 56 -44 86
0 12 -6 47 -14 79 -16 65 -37 161 -61 277 -29 142 -18 130 -114 133 l-83 3 5
-38z"/>
<path fill="#2e2e2e" d="M2496 3414 c-3 -9 -6 -193 -6 -410 l0 -394 23 -8 c23 -9 110 -7 133
2 11 4 14 44 14 198 0 171 2 196 19 221 28 44 60 61 111 61 55 0 101 -30 111
-72 4 -15 7 -111 8 -214 1 -126 5 -189 12 -194 14 -8 137 -9 145 -1 4 3 6 104
5 224 -2 289 -11 314 -130 382 -62 35 -190 5 -248 -57 -36 -39 -44 -17 -42
129 1 69 -1 131 -5 138 -4 6 -35 11 -76 11 -53 0 -69 -4 -74 -16z"/>
<path fill="#2e2e2e" d="M4580 3015 c0 -228 3 -415 8 -416 100 -11 161 4 148 38 -3 8 -6 190
-6 404 l0 389 -75 0 -75 0 0 -415z"/>
<path fill="#2e2e2e" d="M3425 3220 c-93 -23 -172 -83 -207 -159 -18 -38 -21 -65 -21 -161 -1
-102 2 -120 23 -160 47 -89 105 -129 215 -150 48 -9 73 -9 96 -1 18 6 42 11
53 11 49 0 130 57 168 118 30 49 20 62 -53 62 -57 0 -65 -3 -101 -36 -39 -35
-42 -36 -109 -32 -61 3 -71 7 -98 35 -32 33 -45 68 -39 100 3 17 20 18 213 23
l210 5 -3 76 c-3 101 -42 179 -110 221 -79 48 -166 66 -237 48z m135 -138 c14
-10 34 -35 45 -55 29 -54 16 -61 -119 -65 -137 -4 -149 3 -116 68 37 73 127
97 190 52z"/>
<path fill="#2e2e2e" d="M4105 3220 c-99 -29 -135 -52 -177 -115 -43 -65 -58 -115 -58 -198 0
-88 22 -165 64 -217 41 -52 79 -75 158 -95 134 -35 300 30 344 134 18 43 9 51
-66 51 -47 0 -58 -4 -86 -31 -38 -36 -90 -49 -151 -36 -54 10 -95 60 -97 115
l-1 37 210 5 210 5 -1 66 c-1 162 -104 270 -271 284 -26 2 -61 0 -78 -5z m109
-124 c42 -17 76 -61 76 -96 0 -36 -12 -40 -125 -40 -112 0 -125 4 -125 39 1
34 36 76 80 95 44 19 53 19 94 2z"/>
<path fill="#2e2e2e" d="M1266 2094 c-3 -9 -6 -193 -6 -410 l0 -394 23 -8 c18 -6 80 -7 135
-3 9 1 12 32 12 119 0 64 4 122 8 128 4 6 58 13 129 17 136 7 188 23 242 78
59 59 75 104 75 204 -1 127 -28 182 -119 241 -58 37 -104 44 -301 44 -166 0
-193 -2 -198 -16z m321 -120 c161 -20 179 -249 24 -295 -20 -6 -67 -9 -106 -7
l-70 3 -3 140 c-3 176 -2 177 155 159z"/>
<path fill="#2e2e2e" d="M2632 1895 c-67 -19 -84 -28 -133 -72 -65 -59 -82 -109 -83 -238 0
-92 4 -117 22 -155 22 -47 86 -120 104 -120 6 0 19 -6 27 -13 9 -8 46 -19 83
-26 116 -22 223 11 295 93 104 118 96 344 -16 456 -73 73 -196 104 -299 75z
m154 -140 c38 -25 64 -90 64 -161 0 -89 -8 -119 -45 -161 -31 -35 -36 -38 -88
-38 -48 0 -60 4 -87 30 -84 81 -73 270 20 333 40 27 92 26 136 -3z"/>
<path fill="#2e2e2e" d="M2005 1887 c-13 -7 -15 -51 -15 -302 0 -334 -6 -312 85 -309 28 1 56
2 63 3 9 1 12 44 12 181 0 249 18 288 140 300 l55 5 3 44 c6 75 -3 91 -47 91
-45 0 -100 -34 -119 -73 -17 -35 -32 -26 -32 18 0 19 -6 37 -12 42 -17 10
-114 11 -133 0z"/>
</g>
</svg>
