<?xml version="1.0" encoding="UTF-8" standalone="no"?>
<svg
   xmlns:dc="http://purl.org/dc/elements/1.1/"
   xmlns:cc="http://creativecommons.org/ns#"
   xmlns:rdf="http://www.w3.org/1999/02/22-rdf-syntax-ns#"
   xmlns:svg="http://www.w3.org/2000/svg"
   xmlns="http://www.w3.org/2000/svg"
   xmlns:sodipodi="http://sodipodi.sourceforge.net/DTD/sodipodi-0.dtd"
   xmlns:inkscape="http://www.inkscape.org/namespaces/inkscape"
   class="icon-svg"
   aria-hidden="true"
   aria-labelledby="title"
   version="1.1"
   role="img"
   width="135"
   height="40"
   viewBox="0 0 135 40"
   id="svg2"
   inkscape:version="0.91 r13725"
   sodipodi:docname="googleplay_en.svg">
  <metadata
     id="metadata68">
    <rdf:RDF>
      <cc:Work
         rdf:about="">
        <dc:format>image/svg+xml</dc:format>
        <dc:type
           rdf:resource="http://purl.org/dc/dcmitype/StillImage" />
        <dc:title></dc:title>
      </cc:Work>
    </rdf:RDF>
  </metadata>
  <defs
     id="defs66" />
  <sodipodi:namedview
     pagecolor="#ffffff"
     bordercolor="#666666"
     borderopacity="1"
     objecttolerance="10"
     gridtolerance="10"
     guidetolerance="10"
     inkscape:pageopacity="0"
     inkscape:pageshadow="2"
     inkscape:window-width="1674"
     inkscape:window-height="977"
     id="namedview64"
     showgrid="false"
     inkscape:zoom="12.859259"
     inkscape:cx="78.076485"
     inkscape:cy="23.424868"
     inkscape:window-x="0"
     inkscape:window-y="0"
     inkscape:window-maximized="0"
     inkscape:current-layer="svg2" />
  <path
     d="M130 40h-125c-2.75 0-5-2.25-5-5v-30c0-2.75 2.25-5 5-5h125c2.75 0 5 2.25 5 5v30c0 2.75-2.25 5-5 5z"
     id="path4" />
  <path
     fill="#fff"
     d="M68.136 21.752c-2.352 0-4.269 1.788-4.269 4.253 0 2.449 1.917 4.253 4.269 4.253 2.352 0 4.269-1.804 4.269-4.253 0-2.465-1.917-4.253-4.269-4.253zm0 6.83c-1.289 0-2.401-1.063-2.401-2.578 0-1.531 1.112-2.578 2.401-2.578 1.289 0 2.4 1.047 2.4 2.578 0 1.515-1.111 2.578-2.4 2.578zm-9.314-6.83c-2.352 0-4.269 1.788-4.269 4.253 0 2.449 1.917 4.253 4.269 4.253 2.352 0 4.269-1.804 4.269-4.253.001-2.465-1.916-4.253-4.269-4.253zm0 6.83c-1.289 0-2.4-1.063-2.4-2.578 0-1.531 1.112-2.578 2.4-2.578 1.289 0 2.4 1.047 2.4 2.578.001 1.515-1.111 2.578-2.4 2.578zm-11.078-5.525v1.804h4.318c-.129 1.015-.467 1.756-.983 2.272-.628.628-1.611 1.321-3.335 1.321-2.658 0-4.736-2.143-4.736-4.801s2.078-4.801 4.736-4.801c1.434 0 2.481.564 3.254 1.289l1.273-1.273c-1.079-1.031-2.513-1.82-4.527-1.82-3.641 0-6.702 2.964-6.702 6.605 0 3.641 3.061 6.605 6.702 6.605 1.966 0 3.448-.644 4.608-1.853 1.192-1.192 1.563-2.868 1.563-4.221 0-.419-.032-.806-.097-1.128h-6.074zm45.308 1.401c-.354-.95-1.434-2.706-3.641-2.706-2.191 0-4.011 1.724-4.011 4.253 0 2.384 1.804 4.253 4.221 4.253 1.949 0 3.077-1.192 3.544-1.885l-1.45-.967c-.483.709-1.144 1.176-2.094 1.176-.951 0-1.627-.435-2.062-1.289l5.687-2.352-.194-.483zm-5.8 1.418c-.048-1.643 1.273-2.481 2.223-2.481.741 0 1.369.371 1.579.902l-3.802 1.579zm-4.623 4.124h1.869v-12.501h-1.869v12.501zm-3.062-7.298h-.064c-.419-.499-1.224-.951-2.239-.951-2.127 0-4.076 1.869-4.076 4.269 0 2.384 1.949 4.237 4.076 4.237 1.015 0 1.82-.451 2.239-.967h.064v.612c0 1.627-.87 2.497-2.272 2.497-1.144 0-1.853-.822-2.143-1.514l-1.627.677c.467 1.128 1.708 2.513 3.77 2.513 2.191 0 4.044-1.289 4.044-4.43v-7.636h-1.772v.693zm-2.142 5.88c-1.289 0-2.368-1.079-2.368-2.562 0-1.498 1.079-2.594 2.368-2.594 1.273 0 2.272 1.096 2.272 2.594-.001 1.483-.999 2.562-2.272 2.562zm24.381-11.083h-4.471v12.501h1.865v-4.736h2.606c2.068 0 4.101-1.497 4.101-3.882s-2.033-3.883-4.101-3.883zm.048 6.025h-2.654v-4.285h2.654c1.395 0 2.187 1.155 2.187 2.143 0 .968-.792 2.142-2.187 2.142zm11.532-1.795c-1.351 0-2.75.595-3.329 1.914l1.657.692c.354-.692 1.013-.917 1.705-.917.965 0 1.946.579 1.962 1.608v.129c-.338-.193-1.062-.483-1.946-.483-1.785 0-3.603.981-3.603 2.815 0 1.673 1.464 2.75 3.104 2.75 1.255 0 1.946-.563 2.38-1.222h.064v.965h1.801v-4.793c0-2.22-1.656-3.458-3.795-3.458zm-.225 6.851c-.611 0-1.464-.306-1.464-1.062 0-.965 1.062-1.335 1.978-1.335.82 0 1.206.177 1.705.418-.145 1.159-1.142 1.979-2.219 1.979zm10.582-6.578l-2.139 5.42h-.064l-2.219-5.42h-2.01l3.329 7.575-1.898 4.214h1.946l5.131-11.789h-2.076zm-16.807 7.998h1.866v-12.501h-1.866v12.501z"
     id="path6" />
  <linearGradient
     id="a"
     gradientUnits="userSpaceOnUse"
     x1="21.8"
     y1="33.29"
     x2="5.017"
     y2="16.508"
     gradientTransform="matrix(1 0 0 -1 0 42)">
    <stop
       offset="0"
       stop-color="#00A0FF"
       id="stop9" />
    <stop
       offset=".007"
       stop-color="#00A1FF"
       id="stop11" />
    <stop
       offset=".26"
       stop-color="#00BEFF"
       id="stop13" />
    <stop
       offset=".512"
       stop-color="#00D2FF"
       id="stop15" />
    <stop
       offset=".76"
       stop-color="#00DFFF"
       id="stop17" />
    <stop
       offset="1"
       stop-color="#00E3FF"
       id="stop19" />
  </linearGradient>
  <path
     fill="url(#a)"
     d="M10.435 7.538c-.291.308-.463.786-.463 1.405v22.116c0 .62.172 1.097.463 1.405l.074.072 12.389-12.389v-.292l-12.389-12.39-.074.073z"
     id="path21" />
  <linearGradient
     id="b"
     gradientUnits="userSpaceOnUse"
     x1="33.834"
     y1="21.999"
     x2="9.637"
     y2="21.999"
     gradientTransform="matrix(1 0 0 -1 0 42)">
    <stop
       offset="0"
       stop-color="#FFE000"
       id="stop24" />
    <stop
       offset=".409"
       stop-color="#FFBD00"
       id="stop26" />
    <stop
       offset=".775"
       stop-color="#FFA500"
       id="stop28" />
    <stop
       offset="1"
       stop-color="#FF9C00"
       id="stop30" />
  </linearGradient>
  <path
     fill="url(#b)"
     d="M27.028 24.278l-4.129-4.131v-.292l4.13-4.13.093.053 4.893 2.78c1.398.794 1.398 2.093 0 2.888l-4.893 2.78-.094.052z"
     id="path32" />
  <linearGradient
     id="c"
     gradientUnits="userSpaceOnUse"
     x1="24.827"
     y1="19.704"
     x2="2.069"
     y2="-3.054"
     gradientTransform="matrix(1 0 0 -1 0 42)">
    <stop
       offset="0"
       stop-color="#FF3A44"
       id="stop35" />
    <stop
       offset="1"
       stop-color="#C31162"
       id="stop37" />
  </linearGradient>
  <path
     fill="url(#c)"
     d="M27.122 24.225l-4.224-4.224-12.463 12.463c.461.488 1.221.548 2.078.061l14.609-8.3"
     id="path39" />
  <linearGradient
     id="d"
     gradientUnits="userSpaceOnUse"
     x1="7.297"
     y1="41.824"
     x2="17.46"
     y2="31.661"
     gradientTransform="matrix(1 0 0 -1 0 42)">
    <stop
       offset="0"
       stop-color="#32A071"
       id="stop42" />
    <stop
       offset=".069"
       stop-color="#2DA771"
       id="stop44" />
    <stop
       offset=".476"
       stop-color="#15CF74"
       id="stop46" />
    <stop
       offset=".801"
       stop-color="#06E775"
       id="stop48" />
    <stop
       offset="1"
       stop-color="#00F076"
       id="stop50" />
  </linearGradient>
  <path
     fill="url(#d)"
     d="M27.122 15.777l-14.608-8.3c-.857-.487-1.617-.426-2.078.061l12.463 12.463 4.223-4.224z"
     id="path52" />
  <path
     opacity=".2"
     enable-background="new"
     d="M27.029 24.132l-14.515 8.247c-.812.461-1.538.431-2.004.011l-.075.075.074.072c.466.42 1.192.451 2.004-.011l14.608-8.3-.092-.094z"
     id="path54" />
  <path
     opacity=".12"
     enable-background="new"
     d="M10.435 32.318c-.291-.308-.463-.786-.463-1.405v.146c0 .619.172 1.097.463 1.405l.075-.075-.075-.071zM32.015 21.299l-4.986 2.833.093.093 4.893-2.78c.699-.397 1.048-.92 1.048-1.443-.059.473-.415.937-1.048 1.297z"
     id="path56" />
  <path
     opacity=".25"
     fill="#fff"
     enable-background="new"
     d="M12.514 7.623l19.501 11.08c.634.36.989.824 1.048 1.298 0-.523-.349-1.047-1.048-1.444l-19.501-11.08c-1.398-.794-2.541-.135-2.541 1.466v.147c0-1.601 1.143-2.261 2.541-1.467z"
     id="path58" />
  <g
     fill="#fff"
     stroke="#fff"
     stroke-width=".2"
     stroke-miterlimit="10"
     id="g60">
    <path
       d="M42.114 14.273h-.737v-2.011h.587c.519-.447.773-1.212.763-2.296v-2.966h4.006v5.263h.67v2.011h-.737v-1.274h-4.551v1.273zm1.383-4.306c.012.949-.179 1.715-.569 2.296h3.033v-4.526h-2.464v2.23zM53.415 12.225c-.59.607-1.323.909-2.2.909-.877 0-1.61-.303-2.199-.909-.59-.606-.884-1.348-.884-2.225s.294-1.619.884-2.225c.589-.607 1.322-.91 2.199-.91.872 0 1.604.305 2.196.914.592.609.888 1.349.888 2.221-.001.877-.296 1.619-.884 2.225zm-3.831-.503c.444.45.987.674 1.63.674.642 0 1.187-.225 1.63-.674.444-.45.667-1.024.667-1.722s-.223-1.273-.667-1.722c-.443-.45-.987-.674-1.63-.674-.643 0-1.186.225-1.63.674-.443.45-.666 1.024-.666 1.722s.223 1.273.666 1.722zM58.179 13.134c-.883 0-1.623-.299-2.221-.896-.598-.598-.896-1.344-.896-2.238s.298-1.64.896-2.237c.598-.598 1.338-.897 2.221-.897.904 0 1.64.327 2.204.981l-.537.52c-.407-.509-.964-.763-1.667-.763-.654 0-1.206.221-1.655.662-.45.441-.675 1.02-.675 1.734s.225 1.293.675 1.734c.449.441 1.001.662 1.655.662.721 0 1.335-.29 1.844-.871l.536.536c-.274.33-.617.591-1.031.783-.413.194-.863.29-1.349.29zM63.677 13h-.771v-5.263h-1.676v-.737h4.123v.737h-1.676v5.263zM70.646 7l-2.271 5.061c-.313.715-.779 1.072-1.399 1.072-.185 0-.383-.044-.596-.134l.201-.712c.129.073.263.109.402.109.179 0 .317-.035.415-.104.098-.07.188-.197.272-.381l.218-.478-2.017-4.433h.905l1.483 3.444h.033l1.449-3.444h.905zM71.52 13v-6h4.341v6h-.771v-5.263h-2.8v5.263h-.77zM77.234 13v-6h.771v2.572h3v-2.572h.771v6h-.771v-2.707h-3v2.707h-.771zM88.058 12.225c-.59.607-1.323.909-2.2.909-.877 0-1.61-.303-2.199-.909-.59-.606-.884-1.348-.884-2.225s.294-1.619.884-2.225c.589-.607 1.322-.91 2.199-.91.872 0 1.604.305 2.196.914.592.609.888 1.349.888 2.221-.001.877-.296 1.619-.884 2.225zm-3.83-.503c.444.45.987.674 1.63.674s1.187-.225 1.63-.674c.444-.45.667-1.024.667-1.722s-.223-1.273-.667-1.722c-.443-.45-.987-.674-1.63-.674s-1.186.225-1.63.674c-.443.45-.666 1.024-.666 1.722s.222 1.273.666 1.722zM92.094 13v-6h2.17c.47 0 .876.155 1.22.465.344.311.516.7.516 1.169 0 .285-.074.537-.223.754-.147.218-.345.383-.591.495v.033c.296.101.539.274.729.519.189.246.285.531.285.855 0 .492-.181.899-.541 1.223-.36.325-.786.487-1.278.487h-2.287zm.77-3.428h1.399c.291 0 .524-.096.7-.289.176-.192.264-.403.264-.632s-.085-.439-.256-.628c-.17-.19-.395-.285-.674-.285h-1.434v1.834zm0 2.691h1.551c.296 0 .536-.104.721-.311.185-.206.276-.433.276-.679 0-.246-.095-.47-.285-.674-.189-.204-.438-.306-.746-.306h-1.517v1.97z"
       id="path62" />
  </g>
  <rect
     style="fill:#000000"
     id="rect3344"
     width="62.5"
     height="11.774194"
     x="39.82719"
     y="4.1733866" />
  <text
     xml:space="preserve"
     style="font-style:normal;font-weight:normal;font-size:40px;line-height:125%;font-family:sans-serif;letter-spacing:0px;word-spacing:0px;fill:#000000;fill-opacity:1;stroke:none;stroke-width:1px;stroke-linecap:butt;stroke-linejoin:miter;stroke-opacity:1"
     x="40.4758"
     y="13.555802"
     id="text3352"
     sodipodi:linespacing="125%"><tspan
       sodipodi:role="line"
       id="tspan3354"
       x="40.4758"
       y="13.555802"
       style="font-weight:normal;font-size:9.25px;fill:#ffffff">Download on the</tspan></text>
</svg>
